# xmcd
#
# Track frame offsets:
#	150
#	17577
#	32336
#	46034
#	64441
#	79102
#	95667
#	112745
#	125092
#	138852
#	153233
#	169171
#
# Disc length: 2562 seconds
#
# Revision: 0
# Processed by: cddbd v1.5PL3 Copyright (c) Steve Scherf et al.
# Submitted via: dBpowerAMP V4.0
#
DISCID=8f0a000c
DTITLE=Helt Oncale - One The River
DYEAR=2003
DGENRE=Country
TTITLE0=Cant't Wait Anymore
TTITLE1=Ham Bone Too
TTITLE2=How Can You Leave Me
TTITLE3=Slow Down
TTITLE4=Louisiana Man
TTITLE5=Meant For Me
TTITLE6=One The River
TTITLE7=Living In Paradise
TTITLE8=Do You Really Want To Know
TTITLE9=Life Keeps Going Around
TTITLE10=You're The Only One
TTITLE11=Helt's Walking Blues
EXTD=
EXTT0=
EXTT1=
EXTT2=
EXTT3=
EXTT4=
EXTT5=
EXTT6=
EXTT7=
EXTT8=
EXTT9=
EXTT10=
EXTT11=
PLAYORDER=
